<svg xmlns="http://www.w3.org/2000/svg" viewBox="0 0 115 115"><defs><style>.cls-1{fill:#333333;}</style></defs><title>facebook_orange_pictogram</title><g id="Layer_2" data-name="Layer 2"><g id="Layer_1-2" data-name="Layer 1"><g id="Layer_2-2" data-name="Layer 2"><g id="Square_Black_White" data-name="Square Black White"><g id="Facebook"><path id="Facebook-2" class="cls-1" d="M108.59,0H6.41A6.41,6.41,0,0,0,0,6.41V108.59A6.41,6.41,0,0,0,6.41,115h55V70.42h-15V53.07h15V40.25c0-14.85,9.06-22.93,22.3-22.93A123.32,123.32,0,0,1,97.09,18V33.53H87.9c-7.2,0-8.59,3.42-8.59,8.45v11.1H96.48L94.25,70.42H79.31v44.51h29.28a6.41,6.41,0,0,0,6.41-6.41V6.41A6.41,6.41,0,0,0,108.59,0Z"/></g></g></g></g></g></svg>