<svg xmlns="http://www.w3.org/2000/svg" viewBox="0 0 115 115"><defs><style>.cls-1{fill:#333333;}</style></defs><title>instagram_orange_pictogram</title><g id="Layer_2" data-name="Layer 2"><g id="Layer_1-2" data-name="Layer 1"><g id="Layer_2-2" data-name="Layer 2"><g id="Square_Black_White" data-name="Square Black White"><g id="Instagram"><path id="Instagram-2" class="cls-1" d="M101.73,48.64h-10a35.39,35.39,0,1,1-68.44,0h-10V97.3a4.43,4.43,0,0,0,4.38,4.43H97.3a4.43,4.43,0,0,0,4.43-4.41Zm0-31a4.43,4.43,0,0,0-4.43-4.43H84a4.43,4.43,0,0,0-4.41,4.4V31a4.43,4.43,0,0,0,4.43,4.43H97.32A4.43,4.43,0,0,0,101.75,31ZM57.5,35.33A22.12,22.12,0,1,0,79.62,57.5,22.12,22.12,0,0,0,57.5,35.33h0M101.73,115H13.27A13.27,13.27,0,0,1,0,101.73H0V13.27A13.27,13.27,0,0,1,13.27,0h88.46A13.27,13.27,0,0,1,115,13.27h0v88.46A13.27,13.27,0,0,1,101.73,115h0"/></g></g></g></g></g></svg>