<svg xmlns="http://www.w3.org/2000/svg" viewBox="0 0 268.5 93.44"><defs><style>.cls-1{fill:#ffb71b;}</style></defs><title>Asset 1</title><g id="Layer_2" data-name="Layer 2"><g id="Layer_1-2" data-name="Layer 1"><path class="cls-1" d="M88.27,25.33l-.09-.17a45,45,0,1,0,.09.17Zm-12.19,44H63.66L57,44.14,50.48,69.3H38.09L27.51,25.16H39.42l5.7,27.68L52,25.16H62.12l6.93,27.68,5.7-27.68H86.63Z"/><path class="cls-1" d="M186.52,45.89H169.08V53h7.3v1.6a5.06,5.06,0,0,1-5,5.1h-2.28a7,7,0,0,1-6.16-3c-1.38-2-1.27-5.34-1.27-9.07l0-2.79c0-6.72,2.27-9.9,7.4-9.9,3.63,0,5.84,1.58,6.81,4.88h10.4a17.87,17.87,0,0,0-4.22-10.13q-4.45-4.89-13-4.89t-13,4.89q-4.46,4.89-4.45,14v7.89q.14,8.94,4.84,13.63c3.14,3.12,6.93,4.68,12.59,4.68s9.46-1.56,12.6-4.68c2.87-2.86,4.46-6.93,4.77-12.17h0V52.9c0-.44.06-.87.06-1.32Z"/><polygon class="cls-1" points="217.6 25.4 217.6 41.81 202.62 41.81 202.62 25.4 192.46 25.4 192.46 69.33 202.62 69.33 202.62 51.96 217.6 51.96 217.6 69.33 227.72 69.33 227.72 25.4 217.6 25.4"/><polygon class="cls-1" points="268.5 25.4 268.5 25.4 268.5 25.4 233.66 25.4 233.66 25.4 233.45 25.4 233.45 35.54 245.88 35.54 245.88 69.33 256.07 69.33 256.07 35.54 268.5 35.54 268.5 25.4"/><path class="cls-1" d="M120.72,50.86Q128,47.37,128,38.61q0-6.36-4.15-9.82t-11.79-3.45H95.87V69.26H106V52.92h5l7.56,16.34h11.11Zm-4.73-9a8.69,8.69,0,0,1-4.56,1H106V35.48h5.58c3.94,0,5.9,1.2,5.9,3.61A3.21,3.21,0,0,1,116,41.83Z"/><path class="cls-1" d="M145.63,69.26H135.49V25.36h10.14Z"/></g></g></svg>