<svg xmlns="http://www.w3.org/2000/svg" viewBox="0 0 82.524 31.223"><defs><style>.a{fill:#fdbb2d;}</style></defs><g transform="translate(7580.754 9188.738)"><path class="a" d="M15.529,31.223A15.439,15.439,0,0,1,4.548,26.65a15.652,15.652,0,0,1,0-22.078A15.536,15.536,0,0,1,31.057,15.611,15.618,15.618,0,0,1,21.573,30,15.361,15.361,0,0,1,15.529,31.223ZM17.689,13.1h0L19.6,21.216h3.56L26.18,6.974h-3.4L21.142,15.9l-1.986-8.93H16.242L14.286,15.9l-1.633-8.93H9.238l3.032,14.242h3.551Z" transform="translate(-7580.754 -9188.738)"/><path class="a" d="M8.173-38.191H6.723v5.284H3.8V-47.368H8.461a4.731,4.731,0,0,1,3.392,1.137A4.247,4.247,0,0,1,13.049-43a4.206,4.206,0,0,1-2.1,4.032l2.533,5.919v.139H10.348Zm-1.45-2.433H8.381a1.536,1.536,0,0,0,1.311-.581,2.525,2.525,0,0,0,.437-1.554q0-2.175-1.7-2.175H6.723ZM18.1-32.907h-2.92V-47.368H18.1ZM30.39-34.546a5.328,5.328,0,0,1-2.071,1.376,7.567,7.567,0,0,1-2.687.462,4.926,4.926,0,0,1-3.873-1.544,6.679,6.679,0,0,1-1.42-4.494v-2.6a7.152,7.152,0,0,1,1.306-4.6,4.612,4.612,0,0,1,3.809-1.614A4.906,4.906,0,0,1,29-46.4a5.5,5.5,0,0,1,1.385,3.645h-2.84a3.3,3.3,0,0,0-.576-1.882,1.845,1.845,0,0,0-1.43-.5,1.871,1.871,0,0,0-1.718.864,5.507,5.507,0,0,0-.556,2.751v2.622a5.381,5.381,0,0,0,.591,2.875,2.15,2.15,0,0,0,1.942.9,2.536,2.536,0,0,0,1.4-.348l.258-.179V-38.31H25.414v-2.2H30.39ZM42.6-32.907h-2.91v-6.188h-4.31v6.188h-2.92V-47.368h2.92v5.85h4.31v-5.85H42.6ZM54.017-44.934H50.442v12.027h-2.93V-44.934H44v-2.433H54.017Z" transform="translate(-7552.248 -9134.308)"/></g></svg>