<svg xmlns="http://www.w3.org/2000/svg" viewBox="0 0 141.33 114.84"><defs><style>.cls-1{fill:#333333;}</style></defs><title>twitter_orange_pictogram</title><g id="Layer_2" data-name="Layer 2"><g id="Layer_1-2" data-name="Layer 1"><g id="Layer_2-2" data-name="Layer 2"><g id="Square_Black_White" data-name="Square Black White"><g id="Twitter"><path id="Twitter-2" class="cls-1" d="M141.33,13.57a58,58,0,0,1-16.66,4.57,29.08,29.08,0,0,0,12.76-16,58.07,58.07,0,0,1-18.42,7A29,29,0,0,0,69.6,35.57,82.3,82.3,0,0,1,9.86,5.27a29,29,0,0,0,9,38.72A28.87,28.87,0,0,1,5.68,40.36v.37A29,29,0,0,0,28.94,69.17a29.08,29.08,0,0,1-13.17.47A29,29,0,0,0,42.92,89.8a58.18,58.18,0,0,1-36,12.4A59,59,0,0,1,0,101.8a82.06,82.06,0,0,0,44.44,13c53.24,0,82.5-44.19,82.5-82.5V28.59A58.91,58.91,0,0,0,141.33,13.57Z"/></g></g></g></g></g></svg>