<svg xmlns="http://www.w3.org/2000/svg" viewBox="0 0 115 115"><defs><style>.cls-1{fill:#fdbb2d;}</style></defs><title>wolf_orange_pictogram</title><g id="Layer_2" data-name="Layer 2"><g id="Layer_1-2" data-name="Layer 1"><path class="cls-1" d="M57.5,0A57.51,57.51,0,0,0,5.56,82.19L6,81.68a17.93,17.93,0,0,0,11.14-5.52,9.47,9.47,0,0,0,1.54-1.53c1.27-2,4.07-1.74,5.42-4,1.08-1.71,1.61-4.81,4.71-5,.76-3.75,5.42-5.76,3.6-7.33-6.41-4.65-7-5.5,5.85-8.92a53,53,0,0,0,3.86-3.73c4.07-3.62,6.6-6.31,10.3-9.17,2.15-1.72,6.4-1.72,10.3-3.29.92-.36,7.94-8,9.86-10,3.78-3.89,5.27,2.57,5.42,4.29.33,3.19,0,8.13,0,12.79,2.72-.67,4.68-2,7.31-2s1.92,3.28.39,5.49c-2,2.91-3.84,5.91-5.78,8.91a8.3,8.3,0,0,0-2,5.15c0,.55-.45,1.61-.73,1.61-1.24,0-1.55.66-1.35,1.72a8.13,8.13,0,0,1-1.15,5.42,11,11,0,0,0-1,6,8.45,8.45,0,0,1-1,3.93c-.43.92-2.34,2-.66,3.62.31.32-.35,2.11-1,2.83-1.17,1.35-.51,2.71-.6,4.06-.38,4.31-2.5,8-4.5,11.6-2.19,3.91-5.65,7.16-6.46,11.91-.18,1-2.87,3.41-3.71,4.44.58,0,1.16,0,1.74,0a57.5,57.5,0,0,0,0-115Z"/></g></g></svg>