<svg xmlns="http://www.w3.org/2000/svg" viewBox="0 0 87.003 87"><defs><style>.a{fill:#333;}.b{fill:#fdbb2d;}</style></defs><g transform="translate(-66 -890)"><circle class="a" cx="43.5" cy="43.5" r="43.5" transform="translate(66 890)"/><g transform="translate(66.005 890.04)"><path class="b" d="M43.5-.01A43.507,43.507,0,0,0,4.205,62.169l.333-.386a13.564,13.564,0,0,0,8.428-4.176,7.164,7.164,0,0,0,1.165-1.157c.961-1.513,3.079-1.316,4.1-3.026.817-1.294,1.218-3.639,3.563-3.783.575-2.837,4.1-4.358,2.723-5.545-4.849-3.518-5.3-4.161,4.426-6.748a40.1,40.1,0,0,0,2.92-2.822c3.079-2.739,4.993-4.774,7.792-6.937,1.627-1.3,4.842-1.3,7.792-2.489.7-.272,6.007-6.052,7.459-7.565,2.86-2.943,3.987,1.944,4.1,3.245.25,2.413,0,6.151,0,9.676,2.058-.507,3.541-1.513,5.53-1.513s1.453,2.481.3,4.153c-1.513,2.2-2.905,4.471-4.373,6.741a6.279,6.279,0,0,0-1.513,3.9c0,.416-.34,1.218-.552,1.218-.938,0-1.173.5-1.021,1.3a6.151,6.151,0,0,1-.87,4.1,8.322,8.322,0,0,0-.757,4.539,6.393,6.393,0,0,1-.757,2.973c-.325.7-1.77,1.513-.5,2.739.235.242-.265,1.6-.757,2.141-.885,1.021-.386,2.05-.454,3.071-.287,3.261-1.891,6.052-3.4,8.776-1.657,2.958-4.274,5.417-4.887,9.01-.136.757-2.171,2.58-2.807,3.359H43.5a43.5,43.5,0,0,0,0-87Z" transform="translate(0 0)"/></g></g></svg>