<svg xmlns="http://www.w3.org/2000/svg" viewBox="0 0 94.91 115"><defs><style>.cls-1{fill:#333333;}</style></defs><title>youtube_orange_pictogram</title><g id="Layer_2" data-name="Layer 2"><g id="Layer_1-2" data-name="Layer 1"><g id="Layer_2-2" data-name="Layer 2"><g id="Square_Black_White" data-name="Square Black White"><g id="YouTube"><g id="??_1" data-name="?? 1"><g id="??_1-2" data-name="?? 1-2"><path class="cls-1" d="M26.37,16.86,21.81,0H15c1.36,4,2.77,8,4.12,12A105.79,105.79,0,0,1,23.1,25.54V42.92h6.43V25.54L37.25,0H30.76Zm43.7-5.93V35.39c-1.27,1.82-2.55,2.71-3.67,2.71A1.31,1.31,0,0,1,65,36.74,13.58,13.58,0,0,1,65,34.49V10.93H59.2v25.3A16.16,16.16,0,0,0,59.71,41a3.55,3.55,0,0,0,3.73,2.38c2.11,0,4.31-1.27,6.62-3.93v3.49h5.8v-32Zm-24.18-.38a7.89,7.89,0,0,0-6.74,3.28c-1.27,1.62-1.82,4.11-1.82,7.53v11.2c0,3.4.59,5.92,1.82,7.52a7.9,7.9,0,0,0,6.67,3.28,7.92,7.92,0,0,0,6.76-3.27c1.27-1.6,1.79-4.12,1.79-7.52V21.38c0-3.42-.59-5.92-1.79-7.53a7.9,7.9,0,0,0-6.76-3.3Zm2.76,23.11c0,3-.89,4.44-2.76,4.44s-2.76-1.48-2.76-4.44V20.21c0-3,.9-4.44,2.76-4.44s2.76,1.48,2.76,4.44Z"/></g></g><g id="??_1-3" data-name="?? 1-3"><g id="??_1-4" data-name="?? 1-4"><path class="cls-1" d="M79.24,76.28q-2.89,0-2.89,4.39V83.6H82.1V80.67C82.1,77.74,81.14,76.28,79.24,76.28ZM58,76.28a4.12,4.12,0,0,0-2.86,1.35V97A4.1,4.1,0,0,0,58,98.38c1.65,0,2.55-1.41,2.55-4.28V80.61c-.05-2.86-.9-4.33-2.56-4.33Zm35.3-16.76A12,12,0,0,0,83,50.19a300.55,300.55,0,0,0-33.34-1.27H45.28a300.46,300.46,0,0,0-33.34,1.27A12,12,0,0,0,1.68,59.52C0,66.71,0,74.55,0,82v.53c0,7.24,0,14.88,1.65,21.86a12,12,0,0,0,10.26,9.33A300.69,300.69,0,0,0,45.29,115h4.34A300.7,300.7,0,0,0,83,113.68a12,12,0,0,0,10.23-9.33c1.63-7.09,1.67-14.81,1.67-22.12V82C94.91,74.55,94.91,66.71,93.27,59.52ZM27.09,66.66H20.22v36.5H13.86V66.66H7.08v-6h20Zm17.31,36.5H38.66V99.71c-2.28,2.61-4.44,3.89-6.55,3.89a3.53,3.53,0,0,1-3.69-2.35,16.19,16.19,0,0,1-.51-4.71v-25h5.74v23.3a17.51,17.51,0,0,0,0,2.23c.14.89.57,1.34,1.34,1.34,1.15,0,2.35-.89,3.63-2.69V71.51h5.74Zm21.77-9.49A25.45,25.45,0,0,1,65.6,100a4.54,4.54,0,0,1-4.52,3.56c-2,0-4-1.13-5.93-3.5v3.07H49.36V60.68H55.1V74.55C57,72.27,58.92,71.11,61,71.11a4.54,4.54,0,0,1,4.58,3.58,24.6,24.6,0,0,1,.57,6.36v12.6Zm21.63-5.28H76.36V94c0,2.93,1,4.39,2.93,4.39a2.47,2.47,0,0,0,2.55-2.3A36.91,36.91,0,0,0,82,92.2h5.85V93c0,1.85-.06,3.12-.13,3.69a8.11,8.11,0,0,1-1.34,3.44,7.93,7.93,0,0,1-6.94,3.44,8.21,8.21,0,0,1-6.87-3.25c-1.27-1.58-1.85-4.09-1.85-7.44V81.83c0-3.39.56-5.85,1.77-7.46a8.16,8.16,0,0,1,6.87-3.25,8,8,0,0,1,6.77,3.25c1.16,1.6,1.71,4.07,1.71,7.46Z"/></g></g></g></g></g></g></g></svg>